HIERARCHY
ROOT Hips
{
    OFFSET 0.000000 0.000000 0.000000
    CHANNELS 6 Xposition Yposition Zposition Zrotation Xrotation Yrotation
    JOINT Spine
    {
        OFFSET 0.000001 7.292995 0.000000
        CHANNELS 3 Zrotation Xrotation Yrotation
        JOINT Spine1
        {
            OFFSET -0.000000 20.255388 0.000001
            CHANNELS 3 Zrotation Xrotation Yrotation
            JOINT Neck
            {
                OFFSET 0.000001 20.786594 0.000000
                CHANNELS 3 Zrotation Xrotation Yrotation
                JOINT Head
                {
                    OFFSET 0.000003 12.530788 1.776080
                    CHANNELS 3 Zrotation Xrotation Yrotation
                    End Site
                    {
                        OFFSET 0.000000 17.760757 0.000000
                    }
                }
            }
            JOINT LeftShoulder
            {
                OFFSET 3.550532 15.465697 -0.908801
                CHANNELS 3 Zrotation Xrotation Yrotation
                JOINT LeftArm
                {
                    OFFSET 12.513301 -0.000005 0.000001
                    CHANNELS 3 Zrotation Xrotation Yrotation
                    JOINT LeftForeArm
                    {
                        OFFSET 24.225992 0.000005 0.000000
                        CHANNELS 3 Zrotation Xrotation Yrotation
                        JOINT LeftHand
                        {
                            OFFSET 20.711395 -0.000004 0.000000
                            CHANNELS 3 Zrotation Xrotation Yrotation
                            JOINT LeftHandThumb1
                            {
                                OFFSET 2.121964 -2.411326 3.375861
                                CHANNELS 3 Zrotation Xrotation Yrotation
                                JOINT LeftHandThumb2
                                {
                                    OFFSET 2.803212 -0.000001 -0.000002
                                    CHANNELS 3 Zrotation Xrotation Yrotation
                                    JOINT LeftHandThumb3
                                    {
                                        OFFSET 2.395929 0.000000 0.000000
                                        CHANNELS 3 Zrotation Xrotation Yrotation
                                        End Site
                                        {
                                            OFFSET 2.127676 0.000000 0.000000
                                        }
                                    }
                                }
                            }
                            JOINT LeftHandIndex1
                            {
                                OFFSET 8.680776 0.000004 3.375861
                                CHANNELS 3 Zrotation Xrotation Yrotation
                                JOINT LeftHandIndex2
                                {
                                    OFFSET 4.218180 -0.000002 0.000001
                                    CHANNELS 3 Zrotation Xrotation Yrotation
                                    JOINT LeftHandIndex3
                                    {
                                        OFFSET 2.109090 0.000001 -0.000000
                                        CHANNELS 3 Zrotation Xrotation Yrotation
                                        End Site
                                        {
                                            OFFSET 1.872952 0.000000 0.000000
                                        }
                                    }
                                }
                            }
                            JOINT LeftHandMiddle1
                            {
                                OFFSET 8.680775 0.000001 1.118862
                                CHANNELS 3 Zrotation Xrotation Yrotation
                                JOINT LeftHandMiddle2
                                {
                                    OFFSET 4.640000 0.000002 -0.000000
                                    CHANNELS 3 Zrotation Xrotation Yrotation
                                    JOINT LeftHandMiddle3
                                    {
                                        OFFSET 2.530906 0.000005 0.000000
                                        CHANNELS 3 Zrotation Xrotation Yrotation
                                        End Site
                                        {
                                            OFFSET 2.247544 0.000000 0.000000
                                        }
                                    }
                                }
                            }
                            JOINT LeftHandRing1
                            {
                                OFFSET 8.198514 -0.000004 -1.118859
                                CHANNELS 3 Zrotation Xrotation Yrotation
                                JOINT LeftHandRing2
                                {
                                    OFFSET 4.218182 -0.000003 -0.000001
                                    CHANNELS 3 Zrotation Xrotation Yrotation
                                    JOINT LeftHandRing3
                                    {
                                        OFFSET 2.109086 0.000004 0.000001
                                        CHANNELS 3 Zrotation Xrotation Yrotation
                                        End Site
                                        {
                                            OFFSET 1.872952 0.000000 0.000000
                                        }
                                    }
                                }
                            }
                            JOINT LeftHandPinky1
                            {
                                OFFSET 7.716242 0.000005 -3.375859
                                CHANNELS 3 Zrotation Xrotation Yrotation
                                JOINT LeftHandPinky2
                                {
                                    OFFSET 3.374535 0.000004 0.000002
                                    CHANNELS 3 Zrotation Xrotation Yrotation
                                    JOINT LeftHandPinky3
                                    {
                                        OFFSET 1.687275 0.000002 -0.000001
                                        CHANNELS 3 Zrotation Xrotation Yrotation
                                        End Site
                                        {
                                            OFFSET 1.498360 0.000000 0.000000
                                        }
                                    }
                                }
                            }
                        }
                    }
                }
            }
            JOINT RightShoulder
            {
                OFFSET -3.550531 15.465694 -0.908802
                CHANNELS 3 Zrotation Xrotation Yrotation
                JOINT RightArm
                {
                    OFFSET -12.513298 -0.000004 0.000001
                    CHANNELS 3 Zrotation Xrotation Yrotation
                    JOINT RightForeArm
                    {
                        OFFSET -24.225996 -0.000002 -0.000000
                        CHANNELS 3 Zrotation Xrotation Yrotation
                        JOINT RightHand
                        {
                            OFFSET -20.711401 0.000005 0.000001
                            CHANNELS 3 Zrotation Xrotation Yrotation
                            JOINT RightHandThumb1
                            {
                                OFFSET -2.121970 -2.411334 3.375861
                                CHANNELS 3 Zrotation Xrotation Yrotation
                                JOINT RightHandThumb2
                                {
                                    OFFSET -2.803210 0.000003 -0.000004
                                    CHANNELS 3 Zrotation Xrotation Yrotation
                                    JOINT RightHandThumb3
                                    {
                                        OFFSET -2.395930 -0.000001 0.000002
                                        CHANNELS 3 Zrotation Xrotation Yrotation
                                        End Site
                                        {
                                            OFFSET -2.127676 0.000000 0.000000
                                        }
                                    }
                                }
                            }
                            JOINT RightHandIndex1
                            {
                                OFFSET -8.680779 0.000001 3.375860
                                CHANNELS 3 Zrotation Xrotation Yrotation
                                JOINT RightHandIndex2
                                {
                                    OFFSET -4.218180 0.000000 -0.000000
                                    CHANNELS 3 Zrotation Xrotation Yrotation
                                    JOINT RightHandIndex3
                                    {
                                        OFFSET -2.109090 0.000001 -0.000000
                                        CHANNELS 3 Zrotation Xrotation Yrotation
                                        End Site
                                        {
                                            OFFSET -1.872952 0.000000 0.000000
                                        }
                                    }
                                }
                            }
                            JOINT RightHandMiddle1
                            {
                                OFFSET -8.680780 0.000001 1.118860
                                CHANNELS 3 Zrotation Xrotation Yrotation
                                JOINT RightHandMiddle2
                                {
                                    OFFSET -4.640000 -0.000002 0.000001
                                    CHANNELS 3 Zrotation Xrotation Yrotation
                                    JOINT RightHandMiddle3
                                    {
                                        OFFSET -2.530910 0.000001 -0.000000
                                        CHANNELS 3 Zrotation Xrotation Yrotation
                                        End Site
                                        {
                                            OFFSET -2.247544 0.000000 0.000000
                                        }
                                    }
                                }
                            }
                            JOINT RightHandRing1
                            {
                                OFFSET -8.198519 0.000005 -1.118860
                                CHANNELS 3 Zrotation Xrotation Yrotation
                                JOINT RightHandRing2
                                {
                                    OFFSET -4.218180 -0.000006 0.000000
                                    CHANNELS 3 Zrotation Xrotation Yrotation
                                    JOINT RightHandRing3
                                    {
                                        OFFSET -2.109090 0.000001 -0.000000
                                        CHANNELS 3 Zrotation Xrotation Yrotation
                                        End Site
                                        {
                                            OFFSET -1.872952 0.000000 0.000000
                                        }
                                    }
                                }
                            }
                            JOINT RightHandPinky1
                            {
                                OFFSET -7.716248 -0.000002 -3.375859
                                CHANNELS 3 Zrotation Xrotation Yrotation
                                JOINT RightHandPinky2
                                {
                                    OFFSET -3.374540 0.000000 0.000000
                                    CHANNELS 3 Zrotation Xrotation Yrotation
                                    JOINT RightHandPinky3
                                    {
                                        OFFSET -1.687270 0.000004 0.000001
                                        CHANNELS 3 Zrotation Xrotation Yrotation
                                        End Site
                                        {
                                            OFFSET -1.498360 0.000000 0.000000
                                        }
                                    }
                                }
                            }
                        }
                    }
                }
            }
        }
    }
    JOINT LeftUpLeg
    {
        OFFSET 8.880376 -0.000000 -0.000000
        CHANNELS 3 Zrotation Xrotation Yrotation
        JOINT LeftLeg
        {
            OFFSET -0.000001 -40.387405 -0.000001
            CHANNELS 3 Zrotation Xrotation Yrotation
            JOINT LeftFoot
            {
                OFFSET -0.000001 -36.911297 -0.000001
                CHANNELS 3 Zrotation Xrotation Yrotation
                JOINT LeftToeBase
                {
                    OFFSET -0.000002 -5.772240 13.320604
                    CHANNELS 3 Zrotation Xrotation Yrotation
                    End Site
                    {
                        OFFSET 0.000000 0.000000 3.552151
                    }
                }
            }
        }
    }
    JOINT RightUpLeg
    {
        OFFSET -8.880376 0.000000 0.000000
        CHANNELS 3 Zrotation Xrotation Yrotation
        JOINT RightLeg
        {
            OFFSET -0.000001 -40.387390 0.000000
            CHANNELS 3 Zrotation Xrotation Yrotation
            JOINT RightFoot
            {
                OFFSET 0.000002 -36.911297 -0.000001
                CHANNELS 3 Zrotation Xrotation Yrotation
                JOINT RightToeBase
                {
                    OFFSET 0.000001 -5.772238 13.320600
                    CHANNELS 3 Zrotation Xrotation Yrotation
                    End Site
                    {
                        OFFSET 0.000000 0.000000 3.552151
                    }
                }
            }
        }
    }
}
MOTION
Frames: 4
Frame Time: 0.013889
14.720284    85.201111    4.420293    5.049520    6.132427    -8.175467    1.123403    -19.448338    3.370559    -2.776752    12.392633    3.702054    -16.907639    -11.381356    2.322650    -3.783218    -0.640194    5.574285    1.718945    7.310384    -4.886292    -24.985035    54.732544    -17.591555    -59.105133    -0.333614    -89.800392    21.587921    -30.993444    7.760635    37.903683    28.268354    -48.213169    -20.040089    -3.489132    23.069368    -0.000000    0.000000    -0.000000    -15.951581    17.349194    -8.014276    -15.207877    0.000007    0.000001    -15.207877    -0.000007    -0.000001    -18.860298    8.524078    -3.544357    -18.644232    -0.000004    0.000001    -18.644232    0.000003    0.000002    -20.595045    -8.433372    -5.128736    -20.362413    0.000001    0.000002    -20.362413    0.000001    0.000002    -23.100170    -16.639679    -10.912234    -22.080584    0.000000    0.000007    -22.080584    0.000001    -0.000003    -19.511423    -1.425297    -1.745957    0.264714    3.190693    49.303284    53.355782    38.611980    114.900871    -28.017664    -32.061928    -15.999503    -43.806293    24.229933    46.340916    11.653102    0.109823    -23.317232    -0.000000    0.000000    -0.000000    -6.022316    17.906975    -3.871685    -5.729579    0.000007    0.000005    -5.729578    0.000000    -0.000001    -5.757687    8.955339    -1.965564    -5.687275    0.000010    0.000004    -5.687272    -0.000010    -0.000004    -5.736282    -8.955671    0.108042    -5.666125    0.000007    0.000002    -5.666119    -0.000000    0.000003    -5.933451    -17.909693    0.177298    -5.644966    0.000000    -0.000002    -5.644970    -0.000007    -0.000002    13.856330    -7.126877    2.362162    -0.000002    20.144281    -0.000000    -0.165999    17.321377    -0.485308    0.000000    2.981643    -0.000000    -16.709106    -6.327288    -8.559266    0.000000    11.481713    0.000003    12.194240    2.832641    5.051140    0.000000    -2.872968    -0.000002    
13.591464    85.268112    4.336135    5.255837    6.160133    -8.098081    1.064218    -19.127308    3.244756    -2.365534    12.224042    3.498160    -17.079388    -12.070504    2.478129    -3.564946    -0.604737    5.974284    2.373072    7.617993    -4.792596    -24.883001    55.577187    -17.838093    -58.760296    0.158486    -90.096146    23.716841    -29.836100    10.001509    37.418377    29.059904    -46.813854    -20.061235    -3.498127    23.068079    -0.000000    0.000000    -0.000000    -13.872914    17.507397    -6.923922    -13.218347    -0.000007    0.000003    -13.218348    0.000004    -0.000001    -16.755228    8.623771    -3.001727    -16.560314    -0.000002    -0.000000    -16.560312    -0.000000    0.000001    -18.443254    -8.544750    -4.965574    -18.231302    -0.000004    0.000003    -18.231289    0.000004    -0.000001    -20.840384    -16.891502    -10.569343    -19.902277    0.000000    0.000000    -19.902271    0.000000    0.000000    -18.534065    -1.528950    -1.516318    1.361982    3.518870    48.768120    51.675079    38.207928    116.054588    -25.750036    -32.635063    -15.046863    -43.549904    24.388454    46.424255    11.721387    0.080392    -23.317354    -0.000000    0.000000    -0.000000    -6.022318    17.906965    -3.871688    -5.729580    0.000000    -0.000000    -5.729578    -0.000003    -0.000004    -5.713253    8.956023    -1.972487    -5.643375    0.000007    0.000001    -5.643372    -0.000003    -0.000003    -5.669624    -8.956689    0.093241    -5.600268    -0.000007    -0.000000    -5.600267    -0.000003    0.000002    -5.841218    -17.912487    0.155302    -5.557167    0.000007    0.000003    -5.557165    -0.000007    -0.000001    13.407585    -8.466590    1.088388    -0.000002    22.360676    0.000002    1.343232    17.517849    2.707728    0.000003    3.123296    -0.000000    -15.943911    -6.121809    -8.626245    -0.000000    11.305567    0.000001    11.159654    1.687580    4.660860    0.000000    -2.290528    -0.000000    
12.783514    85.286385    4.226969    5.390288    6.142506    -8.043014    1.036764    -18.806376    3.213036    -2.048388    12.112929    3.404328    -17.143381    -12.557916    2.480028    -3.400334    -0.501330    6.148678    2.969829    7.857298    -4.858314    -25.014109    56.133957    -18.037872    -57.930782    0.458140    -90.287056    25.460701    -27.659689    11.218702    37.362568    29.247229    -46.266514    -19.813814    -3.392913    23.082951    -0.000000    0.000000    -0.000000    -12.449421    17.603132    -5.994909    -11.857763    -0.000004    0.000003    -11.857754    0.000000    0.000000    -14.763949    8.707480    -2.622578    -14.589951    0.000002    0.000001    -14.589957    0.000000    -0.000001    -16.144661    -8.650558    -4.435782    -15.956050    -0.000002    0.000001    -15.956050    0.000003    0.000002    -18.156404    -17.157614    -9.411157    -17.322153    0.000003    0.000004    -17.322145    0.000001    -0.000003    -17.759062    -1.712094    -1.525231    2.192953    3.855500    48.409611    50.714233    37.860592    116.660660    -23.524569    -33.379196    -14.077166    -43.359432    24.526943    46.442226    11.781785    0.054359    -23.317415    -0.000000    0.000000    -0.000000    -6.022320    17.906988    -3.871680    -5.729578    -0.000010    -0.000006    -5.729579    0.000007    0.000004    -5.622467    8.957424    -1.986614    -5.553679    -0.000003    0.000000    -5.553680    -0.000003    -0.000002    -5.533444    -8.958738    0.067359    -5.465727    -0.000007    -0.000001    -5.465729    -0.000007    0.000001    -5.652783    -17.918024    0.119102    -5.377777    -0.000003    0.000001    -5.377779    0.000007    0.000002    12.860314    -9.626595    -0.015442    0.000003    24.366158    -0.000002    2.289786    17.460901    5.652744    -0.000001    3.159296    0.000001    -15.393022    -6.045838    -8.739259    0.000000    11.305714    -0.000000    10.392261    0.854437    4.404538    -0.000000    -1.782388    0.000001    
12.019695    85.261246    4.075808    5.601854    6.055106    -8.068069    0.952523    -18.517998    2.996644    -1.722496    12.321761    3.143977    -17.167662    -13.320789    2.613481    -3.275359    -0.535252    6.523643    3.720402    8.051926    -4.850204    -25.608850    56.627190    -17.720280    -58.639225    1.141088    -90.695381    25.807625    -27.743647    11.688742    37.502327    29.220213    -45.948681    -19.424267    -3.227073    23.105440    -0.000000    0.000000    -0.000000    -11.053461    17.687023    -4.946939    -10.524869    0.000004    -0.000007    -10.524858    0.000007    -0.000000    -12.645323    8.785145    -2.209215    -12.494568    0.000011    -0.000004    -12.494566    -0.000002    0.000001    -13.641196    -8.750107    -3.995881    -13.479407    -0.000001    -0.000002    -13.479405    0.000002    -0.000001    -15.175082    -17.410845    -8.402884    -14.464259    -0.000000    0.000002    -14.464261    -0.000002    -0.000000    -17.163382    -2.088779    -1.131778    3.098866    3.938942    47.949703    50.110001    37.519852    116.978508    -20.514244    -34.552010    -12.706763    -43.214306    24.639078    46.441402    11.828624    0.034170    -23.317451    -0.000000    0.000000    -0.000000    -6.022313    17.906967    -3.871688    -5.729580    0.000003    0.000001    -5.729578    -0.000003    0.000001    -5.473144    8.959636    -2.009873    -5.406168    -0.000003    -0.000004    -5.406166    0.000003    0.000004    -5.309461    -8.962020    0.021629    -5.244461    -0.000003    -0.000002    -5.244460    0.000010    0.000001    -5.342842    -17.926760    0.053243    -5.082754    0.000000    -0.000002    -5.082751    -0.000004    0.000004    12.061263    -10.828139    -1.267519    -0.000002    26.657415    0.000001    3.278085    17.395788    8.119059    0.000005    3.276176    0.000001    -14.987021    -6.130682    -8.893422    -0.000002    11.620937    -0.000005    9.641723    -0.132839    4.302876    0.000000    -1.312767    -0.000001    
